# xmcd
# 
# Track frame offsets:
#     150
#     12667
#     35907
#     56907
#     76822
#     98620
#     120080
#     142407
#     178747
#     196837
# 
# Disc length: 2810
# 
# Revision: 1
# Processed by: cddbd v1.5.2PL0 Copyright (c) Steve Scherf et al.
# Submitted via: BonkEnc v1.0.5
# 
DISCID=880af80a
DTITLE=Ella Fitzgerald - Coleção Folha Clássicos do Jazz - Vol.06
DYEAR=2007
DGENRE=Jazz
TTITLE0=Satin Doll
TTITLE1=Imagine My Frustration
TTITLE2=Duke's Place
TTITLE3=Something To Live For
TTITLE4=Let's Do It (Let's Fall In Love)
TTITLE5=Lover Man
TTITLE6=Cotton Tail
TTITLE7=How High The Moon
TTITLE8=Mr. Paganini
TTITLE9=Everyone's Wrong But Me
EXTD=YEAR: 2007
EXTT0=
EXTT1=
EXTT2=
EXTT3=
EXTT4=
EXTT5=
EXTT6=
EXTT7=
EXTT8=
EXTT9=
PLAYORDER=
